<svg id="Layer_1" data-name="Layer 1" xmlns="http://www.w3.org/2000/svg" viewBox="0 0 71.15 77.4"><defs><style>.cls-1{fill:none;}.cls-2{fill:#0bbbef;}.cls-3{fill:#e71f64;}</style></defs><polygon class="cls-1" points="50.19 34.56 53.16 34.56 53.16 36.79 48.74 36.79 48.74 36.8 47.49 38.7 53.82 48.4 60.14 38.7 53.82 28.99 50.19 34.55 50.19 34.56"/><polygon class="cls-2" points="48.87 15.18 34.79 36.8 32.79 36.8 46.87 15.18 48.87 15.18"/><polygon class="cls-2" points="34.99 0 14.84 30.92 12.84 30.92 32.99 0 34.99 0"/><polygon class="cls-2" points="47.49 38.7 53.82 48.4 52.83 49.94 45.5 38.7 52.83 27.46 53.82 28.99 50.2 34.55 53.15 34.55 53.15 36.8 48.74 36.8 47.49 38.7"/><polygon class="cls-2" points="62.13 52.54 63.28 52.54 63.28 54.78 60.67 54.78 55.82 62.22 54.82 60.69 69.15 38.7 54.82 16.69 55.82 15.16 60.53 22.41 64.96 22.41 64.96 24.64 62 24.64 71.15 38.7 62.13 52.54"/><polygon class="cls-2" points="32.98 77.4 34.98 77.4 31.8 72.52 33.92 72.52 33.92 70.29 30.35 70.29 14.83 46.48 12.83 46.48 32.98 77.4"/><polygon class="cls-2" points="32.78 40.61 46.87 62.22 48.87 62.22 34.78 40.61 32.78 40.61"/><polygon class="cls-3" points="33.34 25.19 29.61 30.92 27.61 30.92 31.35 25.19 33.34 25.19"/><polygon class="cls-3" points="25.98 0 2 36.8 0 36.8 22.53 2.23 20.92 2.23 20.92 0 25.98 0"/><polygon class="cls-3" points="28.93 15.18 25.1 21.05 23.1 21.05 26.93 15.18 28.93 15.18"/><polygon class="cls-3" points="36.04 21.05 34.8 22.96 32.8 22.96 34.05 21.05 36.04 21.05"/><polygon class="cls-3" points="38.49 38.7 52.83 60.69 51.83 62.22 36.49 38.7 51.83 15.16 52.83 16.69 38.49 38.7"/><polygon class="cls-3" points="62.14 38.7 53.82 51.46 52.83 49.94 60.14 38.7 52.83 27.46 53.82 25.92 62.14 38.7"/><polygon class="cls-3" points="29.6 46.48 27.6 46.48 30.99 51.67 28.01 51.67 28.01 53.9 32.44 53.9 34.04 56.35 36.04 56.35 29.6 46.48"/><polygon class="cls-3" points="0 40.61 8.88 54.23 5.87 54.23 5.87 56.46 10.33 56.46 23.98 77.4 25.97 77.4 2 40.61 0 40.61"/><polygon class="cls-3" points="23.1 56.35 26.92 62.22 28.92 62.22 25.09 56.35 23.1 56.35"/><polygon points="46.87 15.18 32.79 36.8 2 36.8 25.98 0 32.99 0 12.84 30.92 29.61 30.92 33.34 25.19 36.16 25.19 36.16 22.96 34.8 22.96 36.04 21.05 25.1 21.05 28.93 15.18 46.87 15.18"/><path d="M53.82,15.16,38.48,38.69,53.82,62.21,69.15,38.69Zm0,36.3L45.49,38.69l8.33-12.78,8.31,12.78Z"/><polygon points="36.03 56.35 29.6 46.47 12.84 46.47 32.98 77.39 25.97 77.39 2 40.6 32.78 40.6 46.87 62.22 28.92 62.22 25.09 56.35 36.03 56.35"/><rect class="cls-2" x="66.59" y="22.41" width="2.23" height="2.23"/><rect class="cls-2" x="64.7" y="52.54" width="2.23" height="2.23"/><rect class="cls-3" x="2" y="54.23" width="2.23" height="2.23"/><rect class="cls-3" x="17.26" width="2.23" height="2.23"/></svg>