<svg id="Layer_1" data-name="Layer 1" xmlns="http://www.w3.org/2000/svg" viewBox="0 0 45.08 49.04"><defs><style>.cls-1{fill:none;}.cls-2{fill:#0bbbef;}.cls-3{fill:#e71f64;}.cls-4{fill:#fff;}</style></defs><polygon class="cls-1" points="31.8 21.9 33.68 21.9 33.68 23.31 30.88 23.31 30.88 23.32 30.09 24.52 34.1 30.67 38.1 24.52 34.1 18.37 31.8 21.89 31.8 21.9"/><polygon class="cls-2" points="30.96 9.62 22.04 23.32 20.78 23.32 29.7 9.62 30.96 9.62"/><polygon class="cls-2" points="22.17 0 9.4 19.59 8.13 19.59 20.9 0 22.17 0"/><polygon class="cls-2" points="30.09 24.52 34.1 30.67 33.47 31.64 28.83 24.52 33.47 17.4 34.1 18.37 31.8 21.89 33.68 21.89 33.68 23.32 30.88 23.32 30.09 24.52"/><polygon class="cls-2" points="39.37 33.29 40.09 33.29 40.09 34.71 38.44 34.71 35.37 39.42 34.74 38.46 43.81 24.52 34.74 10.58 35.37 9.61 38.35 14.2 41.16 14.2 41.16 15.61 39.28 15.61 45.08 24.52 39.37 33.29"/><polygon class="cls-2" points="20.9 49.04 22.16 49.04 20.15 45.95 21.49 45.95 21.49 44.54 19.23 44.54 9.4 29.45 8.13 29.45 20.9 49.04"/><polygon class="cls-2" points="20.77 25.73 29.7 39.43 30.96 39.43 22.04 25.73 20.77 25.73"/><polygon class="cls-3" points="21.13 15.96 18.76 19.59 17.5 19.59 19.86 15.96 21.13 15.96"/><polygon class="cls-3" points="16.46 0 1.27 23.32 0 23.32 14.27 1.42 13.25 1.42 13.25 0 16.46 0"/><polygon class="cls-3" points="18.33 9.62 15.9 13.34 14.64 13.34 17.06 9.62 18.33 9.62"/><polygon class="cls-3" points="22.84 13.34 22.05 14.55 20.78 14.55 21.57 13.34 22.84 13.34"/><polygon class="cls-3" points="24.39 24.52 33.47 38.46 32.84 39.42 23.12 24.52 32.84 9.61 33.47 10.58 24.39 24.52"/><polygon class="cls-3" points="39.37 24.52 34.1 32.61 33.47 31.64 38.11 24.52 33.47 17.4 34.1 16.43 39.37 24.52"/><polygon class="cls-3" points="18.76 29.45 17.49 29.45 19.64 32.74 17.74 32.74 17.74 34.16 20.56 34.16 21.57 35.71 22.83 35.71 18.76 29.45"/><polygon class="cls-3" points="0 25.73 5.62 34.36 3.72 34.36 3.72 35.77 6.55 35.77 15.19 49.04 16.46 49.04 1.27 25.73 0 25.73"/><polygon class="cls-3" points="14.63 35.71 17.06 39.43 18.32 39.43 15.9 35.71 14.63 35.71"/><polygon class="cls-4" points="29.7 9.62 20.78 23.32 1.27 23.32 16.46 0 20.9 0 8.13 19.59 18.76 19.59 21.13 15.96 22.91 15.96 22.91 14.55 22.05 14.55 22.84 13.34 15.9 13.34 18.33 9.62 29.7 9.62"/><path class="cls-4" d="M34.1,9.61,24.39,24.52,34.1,39.43l9.71-14.91Zm0,23-5.27-8.09,5.27-8.1,5.27,8.1Z"/><polygon class="cls-4" points="22.83 35.7 18.75 29.45 8.13 29.45 20.9 49.04 16.45 49.04 1.27 25.73 20.77 25.73 29.7 39.42 18.32 39.42 15.89 35.7 22.83 35.7"/><rect class="cls-2" x="42.19" y="14.2" width="1.41" height="1.41"/><rect class="cls-2" x="41" y="33.29" width="1.41" height="1.41"/><rect class="cls-3" x="1.27" y="34.36" width="1.41" height="1.41"/><rect class="cls-3" x="10.94" width="1.41" height="1.41"/></svg>